<svg xmlns="http://www.w3.org/2000/svg" xml:space="preserve" width="800" height="800" viewBox="0 0 56.297 56.297"><path d="M27.567 14.659C11.187 14.659.658 27.608.218 28.161a.997.997 0 0 0 .062 1.316c7.781 8.066 16.605 12.16 26.229 12.16 16.293 0 28.94-11.629 29.472-12.123a1 1 0 0 0 .315-.727.994.994 0 0 0-.307-.729c-9.251-8.889-18.815-13.399-28.422-13.399zm-1.06 24.981c-8.798 0-16.918-3.666-24.148-10.896 2.371-2.623 11.852-12.083 25.208-12.083 8.802 0 17.626 4.067 26.243 12.092-3.003 2.504-14.04 10.887-27.303 10.887z"/><path d="M20.504 28.405c0 4.217 3.429 7.646 7.645 7.646 4.214 0 7.644-3.43 7.644-7.646 0-4.215-3.43-7.645-7.644-7.645-4.213.001-7.645 3.43-7.645 7.645zm7.645-5.644a5.652 5.652 0 0 1 5.644 5.645 5.652 5.652 0 0 1-5.644 5.646 5.652 5.652 0 0 1-5.645-5.646 5.653 5.653 0 0 1 5.645-5.645z"/></svg>